<svg xmlns="http://www.w3.org/2000/svg" viewBox="0 0 24 24" width="24" height="24">
  <!-- Beer mug body -->
  <rect x="3" y="8" width="12" height="13" rx="1.5" fill="#e6a817"/>
  <!-- Beer foam -->
  <ellipse cx="5.5" cy="8" rx="2.5" ry="1.8" fill="#fff"/>
  <ellipse cx="9" cy="7.5" rx="3" ry="2" fill="#fff"/>
  <ellipse cx="12.5" cy="8" rx="2.5" ry="1.8" fill="#fff"/>
  <!-- Mug handle -->
  <path d="M15 11h2a2 2 0 0 1 2 2v2a2 2 0 0 1-2 2h-2" fill="none" stroke="#e6a817" stroke-width="2" stroke-linecap="round"/>
  <!-- Beer lines -->
  <line x1="5.5" y1="12" x2="5.5" y2="18" stroke="#d4960f" stroke-width="0.6" opacity="0.5"/>
  <line x1="9" y1="11" x2="9" y2="19" stroke="#d4960f" stroke-width="0.6" opacity="0.5"/>
  <line x1="12.5" y1="12" x2="12.5" y2="18" stroke="#d4960f" stroke-width="0.6" opacity="0.5"/>
  <!-- Wifi arcs -->
  <circle cx="9" cy="2.5" r="1" fill="#58a6ff"/>
  <path d="M5.8 4a4.5 4.5 0 0 1 6.4 0" fill="none" stroke="#58a6ff" stroke-width="1.3" stroke-linecap="round"/>
  <path d="M3.5 2a8 8 0 0 1 11 0" fill="none" stroke="#58a6ff" stroke-width="1.3" stroke-linecap="round"/>
</svg>
